<?xml version="1.0" encoding="UTF-8"?>
<svg id="Layer_2" data-name="Layer 2" xmlns="http://www.w3.org/2000/svg" xmlns:xlink="http://www.w3.org/1999/xlink" viewBox="0 0 701 701">
  <defs>
    <style>
      .cls-1 {
        fill: #4545ff;
      }

      .cls-1, .cls-2, .cls-3, .cls-4, .cls-5, .cls-6, .cls-7 {
        stroke-width: 0px;
      }

      .cls-2 {
        fill: url(#linear-gradient);
      }

      .cls-8 {
        stroke: #ffd039;
        stroke-miterlimit: 10;
      }

      .cls-8, .cls-9 {
        fill: none;
      }

      .cls-3 {
        fill: #003580;
        filter: url(#drop-shadow-1);
      }

      .cls-9 {
        filter: url(#drop-shadow-2);
        stroke: #fff;
        stroke-linecap: round;
        stroke-linejoin: round;
        stroke-width: 9px;
      }

      .cls-4 {
        fill: url(#linear-gradient-2);
      }

      .cls-5 {
        fill: #fff;
      }

      .cls-6 {
        fill: #ffd039;
      }

      .cls-7 {
        fill: #009fe3;
        filter: url(#drop-shadow-3);
      }
    </style>
    <filter id="drop-shadow-1" filterUnits="userSpaceOnUse">
      <feOffset dx="0" dy="0"/>
      <feGaussianBlur result="blur" stdDeviation="52"/>
      <feFlood flood-color="#000" flood-opacity=".54"/>
      <feComposite in2="blur" operator="in"/>
      <feComposite in="SourceGraphic"/>
    </filter>
    <filter id="drop-shadow-2" filterUnits="userSpaceOnUse">
      <feOffset dx="0" dy="0"/>
      <feGaussianBlur result="blur-2" stdDeviation="50"/>
      <feFlood flood-color="#000" flood-opacity=".5"/>
      <feComposite in2="blur-2" operator="in"/>
      <feComposite in="SourceGraphic"/>
    </filter>
    <linearGradient id="linear-gradient" x1="459.18" y1="325.88" x2="427.44" y2="311.5" gradientUnits="userSpaceOnUse">
      <stop offset="0" stop-color="#fff"/>
      <stop offset="1" stop-color="#000"/>
    </linearGradient>
    <linearGradient id="linear-gradient-2" x1="231.29" y1="22.3" x2="174.61" y2="42.73" gradientTransform="translate(470.23 349.65) rotate(-180)" xlink:href="#linear-gradient"/>
    <filter id="drop-shadow-3" filterUnits="userSpaceOnUse">
      <feOffset dx="0" dy="11"/>
      <feGaussianBlur result="blur-3" stdDeviation="15"/>
      <feFlood flood-color="#000" flood-opacity=".75"/>
      <feComposite in2="blur-3" operator="in"/>
      <feComposite in="SourceGraphic"/>
    </filter>
  </defs>
  <g id="Layer_1-2" data-name="Layer 1">
    <g>
      <rect class="cls-3" x="156.13" y="156.65" width="387.89" height="387.89" rx="104.23" ry="104.23"/>
      <rect class="cls-9" x="181" y="181.51" width="338.17" height="338.17" rx="84.52" ry="84.52"/>
      <g>
        <g>
          <rect class="cls-2" x="444.66" y="321.9" width="44.71" height="15.06"/>
          <rect class="cls-4" x="210.79" y="321.9" width="44.71" height="15.06"/>
          <path class="cls-5" d="M451.81,316.09c-.09-.77-.21-1.53-.36-2.28-.06-.35-.14-.69-.22-1.03-.14-.6-.31-1.19-.49-1.77-.1-.3-.2-.6-.3-.89-.21-.59-.44-1.17-.68-1.74-.13-.28-.26-.57-.39-.85-.14-.28-.28-.56-.42-.84-.43-.83-.92-1.64-1.44-2.43-.15-.22-.3-.44-.45-.65-.05-.08-.1-.15-.16-.23-.54-.74-1.12-1.47-1.74-2.17-.21-.25-.43-.49-.66-.73-.22-.24-.45-.47-.69-.71-2.38-2.38-4.98-4.23-7.81-5.59t0,0c-.81-.39-1.63-.73-2.48-1.03-2.95-1.05-6.11-1.58-9.47-1.58-1.41,0-2.79.09-4.13.27-.58.08-1.15.18-1.72.29-3.31.66-6.38,1.9-9.19,3.71-.85.55-1.69,1.15-2.49,1.81-.8.64-1.58,1.34-2.34,2.11t-.02.01c-.67.67-1.31,1.37-1.89,2.08-.6.72-1.16,1.46-1.68,2.22-.51.75-.98,1.52-1.4,2.31h0c-2.14,3.96-3.22,8.36-3.22,13.17,0,.82,0,1.62.11,2.34h0s-38.74.01-38.74.01c-.1-.72-.2-1.53-.2-2.35,0-2.74.47-5.01,1.41-6.82.08-.16.17-.31.26-.46,1.89-3.22,5.41-4.82,10.52-4.82.38,0,.76.02,1.14.05,2.6.22,4.9,1.24,6.96,3.03l7.99-13.83c-4.5-3.17-9.54-4.9-14.95-5.11-.38-.01-.76-.02-1.14-.02-7.23,0-13.55,2.45-18.79,7.25-.33.31-.66.62-.99.95-3.63,3.63-6.08,7.82-7.29,12.5-.02.06-.04.11-.05.17-.57,2.26-.86,4.63-.86,7.11v2.35h-10.76v-54.1h-14.95v54.1h-10.67c.11-.81.11-1.64.11-2.35,0-7.69-2.77-14.35-8.2-19.78-1.52-1.52-3.13-2.83-4.84-3.93-1.37-.89-2.8-1.64-4.3-2.24-.6-.25-1.21-.47-1.83-.67-.94-.31-1.89-.56-2.87-.77-.64-.12-1.28-.23-1.94-.32-1.32-.18-2.69-.27-4.09-.27-3.84,0-7.43.69-10.74,2.06-.82.34-1.62.72-2.41,1.15-2.37,1.28-4.58,2.94-6.62,4.98t-.02.01c-.47.47-.92.95-1.34,1.44-.21.24-.42.49-.63.74-.39.47-.75.94-1.11,1.43-.05.07-.1.15-.16.23-.1.13-.19.26-.28.39-.05.07-.1.15-.14.22-.36.54-.7,1.09-1.02,1.65-.13.23-.26.46-.38.7-.04.07-.08.14-.11.21-.12.22-.23.44-.34.66-.12.25-.24.52-.36.78-.15.34-.29.67-.42,1.01-.04.11-.08.21-.11.31-.11.25-.2.51-.28.76-.29.82-.53,1.66-.73,2.51-.13.54-.24,1.08-.34,1.63-.09.54-.17,1.09-.24,1.65h0c-.14,1.14-.2,2.29-.2,3.46,0,.82,0,1.62.1,2.34h0c.04.46.08.88.13,1.31.62,5.12,2.58,9.74,5.85,13.76.66.81,1.37,1.6,2.13,2.36,5.43,5.43,12.09,8.19,19.77,8.19,3.38,0,6.53-.49,9.45-1.47,3.65-1.23,6.92-3.24,9.82-6.03.38-.37.75-.75,1.12-1.14,0,0,0-.01.02-.02.55-.6,1.09-1.22,1.61-1.88h102.99c5.63,7.07,13.01,10.55,22.03,10.55.47,0,.94-.01,1.4-.03.45-.02.9-.05,1.35-.09.03,0,.05,0,.08-.01,6.5-.6,12.19-3.31,16.95-8.07.76-.76,1.47-1.55,2.12-2.35,3.27-4.03,5.23-8.64,5.85-13.77.06-.42.1-.86.14-1.3v-.02c.05-.76.09-1.55.09-2.33h0c0-1.18-.06-2.34-.2-3.46ZM287.1,327.51s-.02.02-.02.02c-.11.14-.21.29-.33.43-.11.14-.23.28-.36.42-.12.13-.25.26-.38.39-.12.11-.24.23-.36.33-.35.31-.72.58-1.12.83-.13.08-.26.16-.4.23-.15.09-.31.18-.47.25-.16.09-.33.16-.5.23-.17.08-.34.14-.52.21-.35.14-.72.25-1.11.35-.19.06-.38.1-.58.14-.2.05-.4.09-.61.12-.2.03-.41.07-.63.1-.41.06-.83.1-1.27.13-.02,0-.03,0-.05,0-.45.04-.92.05-1.4.05-.26,0-.51,0-.76-.02-.16,0-.32-.01-.48-.02-.09,0-.18-.01-.26-.02-.24-.01-.48-.03-.71-.06-.7-.06-1.37-.18-1.99-.33-.21-.04-.41-.1-.61-.16-.44-.12-.87-.27-1.27-.44-.05-.02-.09-.04-.14-.07-.16-.06-.33-.13-.48-.21-.09-.04-.17-.09-.26-.14-.01-.01-.02-.01-.03-.02-.18-.08-.34-.19-.51-.29h-.01c-.07-.04-.14-.08-.2-.13-.16-.1-.3-.2-.44-.31-.08-.05-.15-.11-.22-.17-.01-.01-.03-.02-.04-.03-.08-.06-.16-.13-.24-.2-.07-.06-.15-.12-.22-.19-.04-.03-.08-.07-.11-.11-.19-.17-.37-.36-.54-.56-.01,0-.02-.02-.04-.04-.05-.06-.11-.13-.17-.2-.07-.09-.14-.17-.19-.26-.08-.09-.14-.17-.19-.26-.14-.18-.26-.37-.36-.56-.02-.02-.04-.05-.05-.07-.14-.22-.27-.45-.37-.69-.38-.76-.67-1.61-.87-2.53-.09-.31-.15-.62-.19-.95-.17-.97-.25-2.02-.25-3.15s.08-2.17.24-3.14c.01-.05.02-.1.03-.14.03-.21.07-.42.12-.62.03-.17.07-.33.11-.49.03-.14.07-.28.12-.42.04-.17.1-.33.15-.49.02-.09.06-.19.09-.28.04-.1.07-.2.12-.3h0s.02-.07.04-.1c.07-.2.15-.39.25-.57.04-.1.09-.2.15-.3.06-.13.13-.26.2-.38.06-.11.12-.22.2-.32.07-.13.15-.26.24-.38.05-.08.1-.15.17-.22.08-.14.19-.27.3-.4.08-.11.18-.22.28-.32.06-.07.12-.13.18-.19.09-.11.19-.2.29-.28.14-.14.29-.27.44-.39.2-.17.41-.33.63-.47.21-.15.44-.29.67-.41.01,0,.02-.02.03-.02.23-.14.47-.26.71-.36.24-.12.49-.22.74-.31l.09-.03c.22-.08.44-.16.67-.22.07-.03.15-.05.23-.06.21-.07.42-.12.63-.17.25-.06.5-.11.76-.15.26-.05.52-.09.8-.12.02-.01.04-.01.06,0,.26-.04.53-.06.81-.08.08-.02.16-.02.24-.02.31-.02.63-.03.96-.04.15-.01.3-.01.45-.01h.23c.42,0,.84.02,1.24.05.22.01.43.03.65.06.48.04.93.1,1.37.19.19.03.37.07.55.11.49.11.97.24,1.41.4,4.47,1.57,6.73,5.38,6.73,11.39,0,2.83-.5,5.16-1.49,7.01-.18.33-.38.65-.58.95ZM436.11,321.82c-.02.2-.05.4-.08.59-.03.23-.06.46-.12.68,0,.11-.03.22-.06.33-.06.29-.13.58-.21.85,0,.05-.02.1-.04.14-.09.34-.2.67-.33.99-.13.33-.27.65-.43.95-.15.3-.32.59-.5.87-.17.28-.37.54-.58.79-.09.13-.2.25-.32.37-.09.11-.18.21-.3.31-.07.09-.15.16-.23.23-.07.07-.15.14-.22.19-.01.01-.03.02-.04.03-.12.11-.24.21-.36.3-.13.11-.27.21-.42.3-.06.04-.12.08-.18.12-.05.04-.1.07-.16.1-.15.1-.31.19-.48.28-.01.01-.03.02-.05.03-.24.12-.49.24-.75.35-.05.02-.09.04-.14.06-.21.09-.44.18-.67.25-.14.06-.29.1-.44.15-.17.05-.34.1-.52.15-.59.15-1.21.27-1.87.35-.22.03-.44.05-.66.07-.22.03-.45.04-.68.05-.4.03-.82.04-1.24.04-.74,0-1.45-.03-2.13-.11-1.8-.18-3.37-.61-4.69-1.3-.5-.24-.96-.53-1.39-.87-.22-.15-.43-.33-.63-.51-1.28-1.17-2.2-2.7-2.74-4.61-.06-.2-.12-.4-.16-.61-.3-1.25-.45-2.64-.45-4.18,0-1,.06-1.94.19-2.82,0-.01,0-.03,0-.04.09-.67.22-1.3.4-1.89.05-.2.11-.39.17-.58s.13-.38.21-.56c.07-.18.15-.36.23-.54.07-.17.16-.34.25-.51.1-.2.21-.39.33-.58.08-.13.15-.25.24-.37.11-.15.21-.3.32-.44.11-.14.22-.28.35-.42.12-.13.24-.27.37-.39.64-.64,1.37-1.18,2.21-1.61.17-.09.33-.17.51-.25.17-.08.35-.16.53-.23.29-.11.58-.22.89-.31.24-.07.49-.14.74-.2.19-.04.38-.09.58-.12.2-.04.4-.08.61-.12.44-.07.9-.12,1.38-.15.46-.04.94-.06,1.44-.06.08-.01.15-.01.23-.01h0c.25,0,.49,0,.73.01.22.01.44.02.65.03.27.02.53.04.78.07.21.02.42.05.63.08.17.02.33.04.49.08.27.03.54.09.79.15.21.05.42.1.63.17.08.01.16.03.23.06.23.06.45.14.67.22.03,0,.06.01.09.03.26.1.5.2.74.31.25.11.48.23.71.36.01,0,.02,0,.03.02.23.13.45.27.67.41.22.15.42.31.63.47.2.17.39.34.58.52.18.18.36.37.53.57s.33.4.48.62c.15.21.3.43.43.66.14.23.27.47.39.72.12.24.23.5.33.76h0c.08.22.16.42.23.64.07.21.14.43.2.66.06.22.11.45.17.69.1.47.18.95.24,1.46.03.26.06.52.08.78.04.53.06,1.07.06,1.64,0,.8-.04,1.56-.12,2.28Z"/>
        </g>
        <g>
          <rect class="cls-6" x="348.35" y="283.68" width="17.77" height="2.04" transform="translate(-78.69 148.18) rotate(-21.16)"/>
          <rect class="cls-6" x="408.67" y="283.68" width="17.77" height="2.04" transform="translate(-74.62 169.96) rotate(-21.16)"/>
          <rect class="cls-6" x="314.66" y="348.78" width="17.77" height="2.04" transform="translate(-104.47 140.41) rotate(-21.16)"/>
          <circle class="cls-8" cx="263.48" cy="285.43" r="3.31"/>
        </g>
      </g>
      <path class="cls-1" d="M350.79,369.04c-.51-.21-.99-.45-1.43-.73l1.43.73Z"/>
      <path class="cls-7" d="M496.27,408.2c-4.94,26.55-24.32,45.14-54.76,40.46-11.38-1.76-22.36-6.09-33.54-9.19-13.9-3.86-27.84-7.57-41.71-11.53-5.35-1.53-10.54-3.54-14.48-4.88-8.78,2.29-16.92,4.14-24.9,6.54-15.85,4.76-31.49,10.24-47.45,14.58-9.43,2.55-19.28,4.57-29,4.87-17.83.57-31.03-8.13-39.29-23.86-2.82-5.37-4.69-11.24-7.25-17.5,4.97,5.42,8.82,10.71,13.72,14.76,10.39,8.57,20.94,9.37,32.29,2.2,7.88-4.96,14.85-11.34,22.52-16.64,6.78-4.69,13.62-9.58,21.07-12.99,21.98-10.05,40.51-6,57.48,11.95,7.45-10.71,18.04-15.99,30.74-17.02,13.18-1.07,25.21,2.95,36.01,10.11,8.79,5.83,16.94,12.64,25.37,19.02,21.17,16.01,37.67,12.99,52.1-9.53.29-.43.65-.82,1.06-1.33Z"/>
    </g>
  </g>
</svg>